<svg fill="none" viewBox="0 0 17 17" xmlns="http://www.w3.org/2000/svg"><path d="M13.668 4.785a.927.927 0 1 1-1.853 0 .927.927 0 0 1 1.853 0Zm2.94 4.18v.012l-.053 3.356a4.632 4.632 0 0 1-4.579 4.58l-3.368.052h-.012l-3.356-.053a4.632 4.632 0 0 1-4.58-4.579L.608 8.965v-.012l.053-3.356a4.632 4.632 0 0 1 4.58-4.58L8.607.965h.012l3.356.053a4.632 4.632 0 0 1 4.58 4.58l.052 3.367Zm-1.49 0-.052-3.345a3.15 3.15 0 0 0-3.113-3.113l-3.345-.052-3.345.052A3.149 3.149 0 0 0 2.15 5.62l-.052 3.345.052 3.345a3.15 3.15 0 0 0 3.113 3.113l3.345.052 3.345-.052a3.15 3.15 0 0 0 3.113-3.113l.052-3.345Zm-2.402 0a4.108 4.108 0 1 1-8.216 0 4.108 4.108 0 0 1 8.216 0Zm-1.49 0a2.618 2.618 0 1 0-5.235 0 2.618 2.618 0 0 0 5.235 0Z" fill="#ffffff" class="fill-000000"></path></svg>